M48
; DRILL file {KiCad 7.99.0-unknown-70ffd971e3~172~ubuntu22.04.1} date Mon 10 Jul 2023 06:42:56 PM CDT
; FORMAT={-:-/ absolute / inch / decimal}
; #@! TF.CreationDate,2023-07-10T18:42:56-05:00
; #@! TF.GenerationSoftware,Kicad,Pcbnew,7.99.0-unknown-70ffd971e3~172~ubuntu22.04.1
; #@! TF.FileFunction,Plated,1,2,PTH
FMAT,2
INCH
; #@! TA.AperFunction,Plated,PTH,ViaDrill
T1C0.0157
; #@! TA.AperFunction,Plated,PTH,ComponentDrill
T2C0.0394
%
G90
G05
T1
X5.5894Y-4.1421
X6.6187Y-4.0581
X6.6268Y-3.985
X6.6476Y-4.135
X6.6488Y-4.2433
X6.6531Y-3.9484
X6.6728Y-4.0945
X6.7412Y-4.3052
X6.7461Y-3.9843
X6.7807Y-4.013
X6.785Y-4.1518
X6.7858Y-4.0902
X6.842Y-3.9417
X7.037Y-4.1417
X7.0398Y-4.0244
X7.1728Y-3.915
X7.2252Y-4.1563
X7.2264Y-4.024
X7.5787Y-4.1535
X7.5799Y-4.0244
X7.5799Y-4.2843
X7.6776Y-3.9902
T2
X5.0555Y-3.3961
X5.0555Y-3.4961
X5.0555Y-3.5961
X5.0555Y-3.6961
X5.0555Y-3.7961
X5.0555Y-3.8961
X5.0555Y-3.9961
X5.0555Y-4.0961
X5.0555Y-4.1961
X5.0555Y-4.2961
X7.8075Y-3.3961
X7.8075Y-3.4961
X7.8075Y-3.5961
X7.8075Y-3.6961
X7.8075Y-3.7961
X7.8075Y-3.8961
X7.8075Y-3.9961
X7.8075Y-4.0961
X7.8075Y-4.1961
X7.8075Y-4.2961
T0
M30
